<?xml version="1.0" encoding="UTF-8"?>
<svg version="1.1" xmlns="http://www.w3.org/2000/svg" width="326" height="166">
<path d="M0 0 C25.57341928 -0.71404583 50.30578179 2.40405688 69.7421875 20.65234375 C78.55178622 29.81249744 82.49785812 40.68738222 83.109375 53.29296875 C82.86971687 61.41566761 81.23439275 69.5284115 78 77 C78.57967529 76.98428955 79.15935059 76.9685791 79.7565918 76.95239258 C82.40012739 76.88977209 85.04350655 76.85092482 87.6875 76.8125 C88.59951172 76.78736328 89.51152344 76.76222656 90.45117188 76.73632812 C97.45816669 76.65988818 97.45816669 76.65988818 100.70703125 78.69921875 C101.46371094 79.12847656 102.22039062 79.55773437 103 80 C106.06689802 78.85222513 106.06689802 78.85222513 108.08154297 77.79980469 C111.48864585 76.37938358 114.92167263 76.56674676 118.5625 76.625 C119.29146484 76.61339844 120.02042969 76.60179688 120.77148438 76.58984375 C127.35480621 76.62539724 131.88198223 78.86621641 137 83 C137.350625 82.38125 137.70125 81.7625 138.0625 81.125 C141.47040866 77.38729373 146.02254793 77.08414502 150.90234375 76.6640625 C152.24714422 76.63497063 153.59238768 76.62226014 154.9375 76.625 C155.9886499 76.62415405 155.9886499 76.62415405 157.06103516 76.62329102 C162.7750776 76.74490881 166.28319743 77.8869103 171 81 C171.66 81.33 172.32 81.66 173 82 C173.56847656 81.18660156 174.13695312 80.37320313 174.72265625 79.53515625 C178.26472348 76.00555669 182.26819836 76.37372814 187.03320312 76.36523438 C188.71833008 76.40100586 188.71833008 76.40100586 190.4375 76.4375 C191.55705078 76.42654297 192.67660156 76.41558594 193.83007812 76.40429688 C200.15069156 76.46056346 204.25376293 76.66954898 209 81 C213.00474113 86.1640083 213.42622841 90.08204552 213.3359375 96.546875 C213 99 213 99 211 102 C208.38944406 102.24890658 206.03905078 102.3272977 203.4375 102.25 C202.39045898 102.24226563 202.39045898 102.24226563 201.32226562 102.234375 C196.1541718 102.1541718 196.1541718 102.1541718 195 101 C194.96261719 102.18078125 194.92523438 103.3615625 194.88671875 104.578125 C194.82104851 106.13544788 194.75460153 107.69273814 194.6875 109.25 C194.66494141 110.02730469 194.64238281 110.80460937 194.61914062 111.60546875 C194.46497221 114.88505139 194.2171869 117.48715356 192.9296875 120.52734375 C189.97402244 122.78298288 186.98915988 122.46370596 183.4375 122.3125 C182.75236328 122.30283203 182.06722656 122.29316406 181.36132812 122.28320312 C176.3397193 122.16985965 176.3397193 122.16985965 174 121 C173.34 121.33 172.68 121.66 172 122 C167.76163975 122.42564378 163.50467124 122.56202422 159.25 122.75 C158.06921875 122.81832031 156.8884375 122.88664062 155.671875 122.95703125 C149.42980678 123.23117614 145.53059754 123.17563342 140 120 C138.66317393 120.65963497 137.33050618 121.32770875 136 122 C131.72928591 122.57001083 127.42861098 122.6502327 123.125 122.8125 C121.36736328 122.90821289 121.36736328 122.90821289 119.57421875 123.00585938 C113.55151998 123.24854474 109.21754002 123.42235252 104 120 C103.34 120 102.68 120 102 120 C101.34 120.66 100.68 121.32 100 122 C97.47138129 122.16370445 95.05390204 122.20713934 92.52734375 122.16015625 C91.39347984 122.1523539 91.39347984 122.1523539 90.23670959 122.14439392 C87.80344656 122.12655747 85.37060078 122.09551979 82.9375 122.0625 C73.52775338 121.95168373 64.15219046 121.88465595 54.75390625 122.43359375 C54.07496811 122.47307632 53.39602997 122.5125589 52.69651794 122.55323792 C44.77401294 123.07128131 39.6316505 123.72790582 33.4375 128.8125 C-0.86419454 155.29784212 -49.22356609 169.51581152 -92.3125 165.125 C-93.17939453 165.04636719 -94.04628906 164.96773437 -94.93945312 164.88671875 C-99.28076073 164.45425133 -103.02826486 163.94901642 -107 162 C-107 161.67 -107 161.34 -107 161 C-106.02111816 160.90295776 -106.02111816 160.90295776 -105.02246094 160.80395508 C-67.96937924 157.02402161 -30.87725564 146.17163716 -1 123 C-2.670625 122.5978125 -2.670625 122.5978125 -4.375 122.1875 C-8 121 -8 121 -10 118 C-10.26742554 115.91981506 -10.26742554 115.91981506 -10.29052734 113.50024414 C-10.30328705 112.59242691 -10.31604675 111.68460968 -10.32919312 110.74928284 C-10.33141876 109.77112106 -10.33364441 108.79295929 -10.3359375 107.78515625 C-10.3459227 106.27422646 -10.3459227 106.27422646 -10.35610962 104.73277283 C-10.36623725 102.60189644 -10.37092661 100.47098832 -10.37060547 98.34008789 C-10.37497867 95.078408 -10.41129789 91.81808103 -10.44921875 88.55664062 C-10.45508682 86.4869838 -10.45905628 84.41732054 -10.4609375 82.34765625 C-10.47530853 81.37151871 -10.48967957 80.39538116 -10.50448608 79.3896637 C-10.45931423 72.70212178 -10.45931423 72.70212178 -8.2902832 69.38647461 C-5.60152114 67.75877183 -4.02627902 67.4847094 -0.89453125 67.46875 C0.08966797 67.46359375 1.07386719 67.4584375 2.08789062 67.453125 C3.62219727 67.47632812 3.62219727 67.47632812 5.1875 67.5 C6.69280273 67.47679688 6.69280273 67.47679688 8.22851562 67.453125 C14.8205675 67.48743627 20.37846044 68.37658752 26 72 C28.22604338 74.35240274 30 76.63850817 30 80 C33.80217964 79.27647844 36.81973583 78.23688306 40 76 C46.35082946 64.43750331 47.96477571 50.09951538 44.4375 37.4375 C39.23141937 22.18459709 29.86547743 13.8856372 15.85546875 6.80078125 C10.74869877 4.3339843 5.45178267 2.54314891 0 1 C0 0.67 0 0.34 0 0 Z M100 94 C98.99406757 95.1196986 97.9954151 96.2459412 97 97.375 C96.443125 98.00148438 95.88625 98.62796875 95.3125 99.2734375 C93.79827513 100.90389833 93.79827513 100.90389833 94 103 C95.65 103 97.3 103 99 103 C100.32 100.36 101.64 97.72 103 95 C102.01 94.67 101.02 94.34 100 94 Z M66 96 C66 98.64 66 101.28 66 104 C68.64752004 101.42215154 70.94432065 99.08351902 73 96 C70.69 96 68.38 96 66 96 Z " fill="#F9F9F9" transform="translate(113,0)"/>
<path d="M0 0 C1.1446875 -0.02578125 2.289375 -0.0515625 3.46875 -0.078125 C6.5 0.25 6.5 0.25 8.16564369 1.52618408 C10.52869513 4.57894118 9.91427236 8.46233859 9.88818359 12.171875 C9.89344055 13.08432983 9.89869751 13.99678467 9.90411377 14.93688965 C9.91733576 17.9580997 9.90856784 20.97878443 9.8984375 24 C9.9004576 26.09602968 9.9033685 28.19205867 9.90713501 30.28808594 C9.91156135 34.68301071 9.90511727 39.0777527 9.89111328 43.47265625 C9.87402132 49.11218821 9.88386084 54.75129187 9.90183067 60.39080811 C9.91266009 64.71959676 9.90922602 69.04828351 9.9014473 73.3770752 C9.89944296 75.45674693 9.90191271 77.53642786 9.90888596 79.61608887 C9.9164865 82.52035098 9.90491572 85.42391501 9.88818359 88.328125 C9.89425629 89.19159546 9.90032898 90.05506592 9.90658569 90.94470215 C9.84377877 96.81535513 9.84377877 96.81535513 8.13829994 98.97161865 C5.76942952 100.82007124 3.96396774 100.61428976 1 100.5625 C0.0409375 100.55863281 -0.918125 100.55476563 -1.90625 100.55078125 C-4.5 100.25 -4.5 100.25 -7.5 98.25 C-8.1875 95.625 -8.1875 95.625 -8.5 93.25 C-9.09167969 93.65992187 -9.68335938 94.06984375 -10.29296875 94.4921875 C-11.08316406 95.03101562 -11.87335938 95.56984375 -12.6875 96.125 C-13.46480469 96.65867187 -14.24210937 97.19234375 -15.04296875 97.7421875 C-22.18285641 102.12374018 -29.71757248 102.29444504 -37.87890625 100.8203125 C-44.07584834 98.85572421 -48.6181473 94.58030902 -51.7890625 88.96875 C-57.36747652 76.92900752 -57.78933189 59.83795578 -53.8125 47.25 C-50.47353234 39.23415081 -46.43362128 34.06697088 -38.5 30.25 C-31.81532394 28.04053865 -23.19705991 27.96397004 -16.875 31.125 C-14.73313637 32.4735808 -12.6059668 33.84602213 -10.5 35.25 C-10.17 24.03 -9.84 12.81 -9.5 1.25 C-6.16334135 0.13778045 -3.51220338 0.04746221 0 0 Z M-33.5 50.25 C-37.56660279 57.70543845 -37.71065218 66.54765276 -35.9609375 74.7890625 C-34.34465744 79.53133477 -32.01226877 82.99386561 -27.5 85.25 C-22.3695621 85.49032601 -18.52333988 84.72840015 -14.5625 81.375 C-11.06091978 78.08036897 -9.26092875 75.47498175 -9.05859375 70.609375 C-9.00673684 68.73986677 -8.96683829 66.86999718 -8.9375 65 C-8.88787109 64.07058594 -8.83824219 63.14117187 -8.78710938 62.18359375 C-8.71027053 57.00977844 -9.10399836 53.99934981 -12.78515625 50.203125 C-16.27110469 47.11764983 -19.23043735 45.41457294 -23.875 44.8125 C-28.32316027 45.34934693 -30.73757389 46.8430078 -33.5 50.25 Z " fill="#3D3F94" transform="translate(88.5,23.75)"/>
<path d="M0 0 C25.57341928 -0.71404583 50.30578179 2.40405688 69.7421875 20.65234375 C78.54910571 29.80971026 82.50853271 40.69180703 83.10546875 53.296875 C82.8683062 61.62391574 81.61761824 70.94088246 77 78 C74.66015625 78.62890625 74.66015625 78.62890625 72.0625 78.5625 C67.71888677 78.65719063 67.71888677 78.65719063 64.375 81.5625 C63.92125 82.366875 63.4675 83.17125 63 84 C62.278125 83.38125 61.55625 82.7625 60.8125 82.125 C56.07478592 78.54539381 52.07263103 77.73167461 46.1875 77.375 C45.02605469 77.30023438 43.86460937 77.22546875 42.66796875 77.1484375 C41.34732422 77.07496094 41.34732422 77.07496094 40 77 C40.34933594 75.98679687 40.69867188 74.97359375 41.05859375 73.9296875 C41.51847229 72.57820771 41.97809409 71.22664053 42.4375 69.875 C42.66759766 69.20984375 42.89769531 68.5446875 43.13476562 67.859375 C47.39512383 55.26353335 47.14014326 43.32724622 42 31 C34.22983421 15.79408062 20.86730559 7.79320708 5.0625 2.5 C3.37935761 1.98552169 1.69348242 1.47934698 0 1 C0 0.67 0 0.34 0 0 Z " fill="#F8A853" transform="translate(113,0)"/>
<path d="M0 0 C0.7425 0.78375 1.485 1.5675 2.25 2.375 C5.14826662 5.14152723 7.169531 6.02011258 11 7 C9.59981585 11.20055245 6.59451919 12.68886021 3.0625 15.0625 C2.34811768 15.54565674 1.63373535 16.02881348 0.89770508 16.52661133 C-34.68547893 40.20624892 -78.31730104 54.50625982 -121.3125 50.125 C-122.17939453 50.04636719 -123.04628906 49.96773437 -123.93945312 49.88671875 C-128.28076073 49.45425133 -132.02826486 48.94901642 -136 47 C-136 46.67 -136 46.34 -136 46 C-135.34741211 45.93530518 -134.69482422 45.87061035 -134.02246094 45.80395508 C-99.67225177 42.29975248 -57.87709482 32.97302027 -31.55078125 8.74609375 C-28.16328968 6.42724424 -25.15228045 6.45325716 -21.1875 6.4375 C-11.50219708 6.23799479 -11.50219708 6.23799479 -3.42578125 1.3984375 C-2 0 -2 0 0 0 Z " fill="#F8A753" transform="translate(142,115)"/>
<path d="M0 0 C1.1446875 0.00644531 2.289375 0.01289062 3.46875 0.01953125 C6.5 0.1875 6.5 0.1875 9.5 1.1875 C9.5 23.6275 9.5 46.0675 9.5 69.1875 C6.15109379 70.30380207 3.52460739 70.35515424 0 70.375 C-1.1446875 70.38917969 -2.289375 70.40335937 -3.46875 70.41796875 C-6.5 70.1875 -6.5 70.1875 -9.5 68.1875 C-9.88095093 65.45483398 -9.88095093 65.45483398 -9.88818359 61.93359375 C-9.89764008 60.61883057 -9.90709656 59.30406738 -9.9168396 57.94946289 C-9.91147009 56.50797221 -9.90531719 55.06648426 -9.8984375 53.625 C-9.90045752 52.15291194 -9.90336835 50.68082486 -9.90713501 49.20874023 C-9.91156182 46.12181074 -9.90511614 43.03514146 -9.89111328 39.94824219 C-9.87402084 35.98666167 -9.88386017 32.02569082 -9.90183067 28.06413269 C-9.9126591 25.02383816 -9.90922659 21.98368874 -9.9014473 18.94338989 C-9.89944266 17.4825127 -9.90191379 16.02162243 -9.90888596 14.5607605 C-9.91648408 12.52097823 -9.90285452 10.48114991 -9.88818359 8.44140625 C-9.88579681 7.27939697 -9.88341003 6.1173877 -9.88095093 4.92016602 C-9.75523712 4.01838623 -9.62952332 3.11660645 -9.5 2.1875 C-5.91527958 -0.20231361 -4.24646235 -0.05260257 0 0 Z " fill="#3D3F94" transform="translate(9.5,53.8125)"/>
<path d="M0 0 C20 0 20 0 26 3 C28.67348144 7.01022217 28.71022805 10.28441606 28 15 C26 18.0625 26 18.0625 24 20 C24.61875 20.268125 25.2375 20.53625 25.875 20.8125 C28 22 28 22 30 25 C30.43121354 30.34704794 30.46830537 33.66461829 27 38 C18.9586544 45.0361774 12.04638634 42 0 42 C0 28.14 0 14.28 0 0 Z " fill="#3F3C3D" transform="translate(109,74)"/>
<path d="M0 0 C1.28648437 -0.02835937 2.57296875 -0.05671875 3.8984375 -0.0859375 C8.18000878 0.44364888 10.30446214 1.676436 13.625 4.375 C15.00808781 7.14117563 14.73710196 9.38518 14.72265625 12.4765625 C14.71943359 13.68828125 14.71621094 14.9 14.71289062 16.1484375 C14.70451172 17.41945313 14.69613281 18.69046875 14.6875 20 C14.68298828 21.27875 14.67847656 22.5575 14.67382812 23.875 C14.66201203 27.04171292 14.64553815 30.20833356 14.625 33.375 C12.315 33.375 10.005 33.375 7.625 33.375 C7.625 32.385 7.625 31.395 7.625 30.375 C7.12871094 30.66375 6.63242187 30.9525 6.12109375 31.25 C1.48140479 33.7855416 -1.96442295 35.19169088 -7.375 34.375 C-10.76439556 32.23820715 -12.10082557 31.1975233 -13.375 27.375 C-13.86286006 22.98425949 -13.9439965 21.10656693 -11.1875 17.5625 C-5.35360841 13.02502877 -0.53928717 13.12459773 6.625 13.375 C5.965 11.395 5.305 9.415 4.625 7.375 C-0.82193314 7.27811779 -6.01404667 7.24637825 -11.375 8.375 C-11.375 6.395 -11.375 4.415 -11.375 2.375 C-7.66600109 0.0215743 -4.3250932 0.0431646 0 0 Z " fill="#3F3C3D" transform="translate(267.375,82.625)"/>
<path d="M0 0 C1.29808594 -0.01675781 2.59617188 -0.03351563 3.93359375 -0.05078125 C7.75318364 0.33158889 9.59321503 0.92521644 12.5625 3.3125 C14.74390329 6.67168075 14.79656042 9.43833683 14.7578125 13.390625 C14.75136719 14.55078125 14.74492187 15.7109375 14.73828125 16.90625 C14.72152344 18.1128125 14.70476562 19.319375 14.6875 20.5625 C14.67847656 21.78453125 14.66945312 23.0065625 14.66015625 24.265625 C14.63659513 27.28144782 14.60369706 30.29687492 14.5625 33.3125 C12.2525 33.3125 9.9425 33.3125 7.5625 33.3125 C7.2325 32.3225 6.9025 31.3325 6.5625 30.3125 C5.964375 30.786875 5.36625 31.26125 4.75 31.75 C0.78842922 34.57969342 -2.67667041 34.72291634 -7.4375 34.3125 C-10.19079021 32.51687595 -11.96377461 31.25995078 -13.4375 28.3125 C-14.13652913 21.20570388 -14.13652913 21.20570388 -11.1875 17.4375 C-6.83826689 14.07672896 -4.22804847 13.05558218 1.3125 13.1875 C2.29734375 13.20554687 3.2821875 13.22359375 4.296875 13.2421875 C5.41835937 13.27699219 5.41835937 13.27699219 6.5625 13.3125 C6.21805119 10.83983235 6.21805119 10.83983235 5.5625 8.3125 C0.67382099 5.86816049 -6.28903098 7.25640379 -11.4375 8.3125 C-11.4375 6.3325 -11.4375 4.3525 -11.4375 2.3125 C-7.70976672 -0.06831693 -4.34921514 0.01293126 0 0 Z " fill="#3E3B3C" transform="translate(231.4375,82.6875)"/>
<path d="M0 0 C2.3125 1.6875 2.3125 1.6875 4.3125 4.6875 C4.53955078 7.5065918 4.53955078 7.5065918 4.5078125 10.88671875 C4.50136719 12.09521484 4.49492187 13.30371094 4.48828125 14.54882812 C4.47152344 15.81146484 4.45476562 17.07410156 4.4375 18.375 C4.42847656 19.64923828 4.41945312 20.92347656 4.41015625 22.23632812 C4.38655641 25.38690627 4.35363194 28.53710983 4.3125 31.6875 C2.0025 31.6875 -0.3075 31.6875 -2.6875 31.6875 C-3.0175 31.0275 -3.3475 30.3675 -3.6875 29.6875 C-4.326875 30.1825 -4.96625 30.6775 -5.625 31.1875 C-9.71471887 33.19062761 -13.20995 33.5797654 -17.6875 32.6875 C-21.6080703 29.58371518 -23.4304694 27.35819893 -24.1875 22.4375 C-23.56213291 17.74724684 -22.09892258 16.66417095 -18.51171875 13.8515625 C-15.16091742 11.71336379 -12.36589598 11.57479356 -8.5 11.625 C-7.59894531 11.63402344 -6.69789063 11.64304687 -5.76953125 11.65234375 C-5.08246094 11.66394531 -4.39539063 11.67554687 -3.6875 11.6875 C-4.3475 9.7075 -5.0075 7.7275 -5.6875 5.6875 C-7.43741334 5.66034617 -9.18744945 5.64103449 -10.9375 5.625 C-11.91203125 5.61339844 -12.8865625 5.60179688 -13.890625 5.58984375 C-16.34508678 5.67554423 -18.34918914 5.98043934 -20.6875 6.6875 C-20.6875 4.3775 -20.6875 2.0675 -20.6875 -0.3125 C-14.12274078 -2.29793937 -6.42129291 -2.28554493 0 0 Z " fill="#3F3C3D" transform="translate(168.6875,84.3125)"/>
<path d="M0 0 C8.58 0 17.16 0 26 0 C26 6.74876685 26 6.74876685 23.4453125 9.76171875 C22.91292969 10.40560547 22.38054687 11.04949219 21.83203125 11.71289062 C21.26871094 12.36451172 20.70539063 13.01613281 20.125 13.6875 C19.02273243 15.00331593 17.92114337 16.31970062 16.8203125 17.63671875 C16.32805176 18.21123779 15.83579102 18.78575684 15.32861328 19.37768555 C13.81311561 21.17412079 13.81311561 21.17412079 12 24 C18.93 24.495 18.93 24.495 26 25 C26 27.31 26 29.62 26 32 C17.42 32 8.84 32 0 32 C0 25.72763818 0.93708548 24.00942008 4.6875 19.5625 C5.60627554 18.42513042 6.52425195 17.28711481 7.44140625 16.1484375 C8.10487061 15.33777832 8.10487061 15.33777832 8.78173828 14.51074219 C10.99214884 11.76965591 12.98617685 8.88647985 15 6 C10.05 6 5.1 6 0 6 C0 4.02 0 2.04 0 0 Z " fill="#3A3738" transform="translate(183,84)"/>
<path d="M0 0 C2.64 0 5.28 0 8 0 C8.33 0.99 8.66 1.98 9 3 C9.474375 2.505 9.94875 2.01 10.4375 1.5 C14.22155914 -0.71505901 17.71551811 -0.7102617 22 0 C24.87029869 1.79393668 26.49131638 2.98263276 28 6 C28.04022391 8.3329866 28.04320247 10.66706666 28 13 C25.36 13 22.72 13 20 13 C19.67 11.35 19.34 9.7 19 8 C14.92611838 7.60453628 14.92611838 7.60453628 11.33276367 9.19262695 C9.57403642 11.57765312 9.57346196 13.15821622 9.48828125 16.10546875 C9.45283203 17.08837891 9.41738281 18.07128906 9.38085938 19.08398438 C9.34702148 20.62022461 9.34702148 20.62022461 9.3125 22.1875 C9.27833984 23.22326172 9.24417969 24.25902344 9.20898438 25.32617188 C9.12647358 27.8840066 9.05733428 30.44149723 9 33 C6.03 33 3.06 33 0 33 C0 22.11 0 11.22 0 0 Z " fill="#474445" transform="translate(292,83)"/>
<path d="M0 0 C3.19030638 3.4990457 3.06219299 7.53336393 2.9375 12.125 C2.3125 15.125 2.3125 15.125 0.9375 17.125 C-3.14034792 19.71999413 -8.36607104 19.87289023 -13.0625 19.125 C-15.8046875 18.04296875 -15.8046875 18.04296875 -18.0625 16.125 C-18.7265625 12.875 -18.7265625 12.875 -18.6875 9.125 C-18.70683594 7.26875 -18.70683594 7.26875 -18.7265625 5.375 C-18.0625 2.125 -18.0625 2.125 -15.8359375 0.2109375 C-10.560472 -1.8546673 -5.39619042 -1.54176869 0 0 Z " fill="#3C3E93" transform="translate(18.0625,26.875)"/>
<path d="M0 0 C4.12277052 -0.2096324 7.10146489 -0.31823119 11 1.0625 C13 3 13 3 13.5625 6.5 C13 10 13 10 11.5625 11.9375 C7.654088 13.55806107 4.21186848 13.18581773 0 13 C0 8.71 0 4.42 0 0 Z " fill="#ECECEC" transform="translate(117,97)"/>
<path d="M0 0 C7.2 -0.36 7.2 -0.36 10.5 1.125 C12 3 12 3 12.5 6 C12 9 12 9 10.5 10.875 C6.87739877 12.50517055 3.95453342 12.19772667 0 12 C0 8.04 0 4.08 0 0 Z " fill="#EAE9E9" transform="translate(117,80)"/>
<path d="M0 0 C1.21236328 0.04060547 1.21236328 0.04060547 2.44921875 0.08203125 C3.06410156 0.11683594 3.67898438 0.15164062 4.3125 0.1875 C4.625 2.4375 4.625 2.4375 4.3125 5.1875 C2.1875 7.5625 2.1875 7.5625 -0.6875 9.1875 C-4 8.9375 -4 8.9375 -6.6875 8.1875 C-7.375 5.875 -7.375 5.875 -7.6875 3.1875 C-5.4587174 0.07893479 -3.70889568 -0.16125633 0 0 Z " fill="#F2F2F2" transform="translate(269.6875,101.8125)"/>
<path d="M0 0 C1.21236328 0.02707031 1.21236328 0.02707031 2.44921875 0.0546875 C3.37154297 0.08949219 3.37154297 0.08949219 4.3125 0.125 C4.6875 2.375 4.6875 2.375 4.3125 5.125 C1.625 7.5 1.625 7.5 -1.6875 9.125 C-5.97321429 8.83928571 -5.97321429 8.83928571 -7.6875 7.125 C-7.9375 4.6875 -7.9375 4.6875 -7.6875 2.125 C-4.48369983 -0.01086678 -3.66810033 -0.10632175 0 0 Z " fill="#F4F4F4" transform="translate(233.6875,101.875)"/>
<path d="M0 0 C1.21816406 0.03480469 1.21816406 0.03480469 2.4609375 0.0703125 C3.68683594 0.09738281 3.68683594 0.09738281 4.9375 0.125 C5.87722656 0.15980469 5.87722656 0.15980469 6.8359375 0.1953125 C7.1484375 2.4453125 7.1484375 2.4453125 6.8359375 5.1953125 C4.6484375 7.5703125 4.6484375 7.5703125 1.8359375 9.1953125 C-1.58739501 9.03608773 -2.7271862 8.6321888 -5.1640625 6.1953125 C-4.72873859 2.71272122 -3.81588634 0.34439407 0 0 Z " fill="#F3F3F3" transform="translate(158.1640625,101.8046875)"/>
</svg>
